<?xml version="1.0" encoding="UTF-8" standalone="no"?>
<svg
   xmlns:dc="http://purl.org/dc/elements/1.1/"
   xmlns:cc="http://creativecommons.org/ns#"
   xmlns:rdf="http://www.w3.org/1999/02/22-rdf-syntax-ns#"
   xmlns:svg="http://www.w3.org/2000/svg"
   xmlns="http://www.w3.org/2000/svg"
   xmlns:sodipodi="http://sodipodi.sourceforge.net/DTD/sodipodi-0.dtd"
   xmlns:inkscape="http://www.inkscape.org/namespaces/inkscape"
   width="263.65"
   height="188.12"
   inkscape:version="0.92.4 (5da689c313, 2019-01-14)"
   sodipodi:docname="powerflo.svg"
   version="1.1"
   viewBox="0 0 69.757 49.774"
   id="svg65">
  <metadata
     id="metadata67">
    <rdf:RDF>
      <cc:Work
         rdf:about="">
        <dc:format>image/svg+xml</dc:format>
        <dc:type
           rdf:resource="http://purl.org/dc/dcmitype/StillImage" />
        <dc:title></dc:title>
      </cc:Work>
    </rdf:RDF>
  </metadata>
  <sodipodi:namedview
     bordercolor="#666666"
     borderopacity="1"
     gridtolerance="10"
     guidetolerance="10"
     inkscape:current-layer="g51"
     inkscape:cx="143.86169"
     inkscape:cy="96.025538"
     inkscape:pageopacity="0"
     inkscape:pageshadow="2"
     inkscape:window-height="1017"
     inkscape:window-maximized="1"
     inkscape:window-width="1920"
     inkscape:window-x="-8"
     inkscape:window-y="-8"
     inkscape:zoom="14.193256"
     objecttolerance="10"
     pagecolor="#ffffff"
     showgrid="false"
     id="namedview2" />
  <defs
     id="defs25">
    <filter
       id="filter3413"
       x="-.045486"
       y="-.13344"
       width="1.091"
       height="1.2669"
       color-interpolation-filters="sRGB">
      <feGaussianBlur
         stdDeviation="0.074806676"
         id="feGaussianBlur4" />
    </filter>
    <filter
       id="filter3409"
       x="-.010409"
       y="-.081159"
       width="1.0208"
       height="1.1623"
       color-interpolation-filters="sRGB">
      <feGaussianBlur
         stdDeviation="0.074806676"
         id="feGaussianBlur7" />
    </filter>
    <filter
       id="filter3393"
       x="-.031676"
       y="-.13239"
       width="1.0634"
       height="1.2648"
       color-interpolation-filters="sRGB">
      <feGaussianBlur
         stdDeviation="0.074806676"
         id="feGaussianBlur10" />
    </filter>
    <filter
       id="filter3389"
       x="-.014939"
       y="-.13001"
       width="1.0299"
       height="1.26"
       color-interpolation-filters="sRGB">
      <feGaussianBlur
         stdDeviation="0.074806676"
         id="feGaussianBlur13" />
    </filter>
    <filter
       id="filter3397"
       x="-.0090343"
       y="-.062638"
       width="1.0181"
       height="1.1253"
       color-interpolation-filters="sRGB">
      <feGaussianBlur
         stdDeviation="0.074806676"
         id="feGaussianBlur16" />
    </filter>
    <filter
       id="filter3405"
       x="-.014691"
       y="-.12062"
       width="1.0294"
       height="1.2412"
       color-interpolation-filters="sRGB">
      <feGaussianBlur
         stdDeviation="0.074806676"
         id="feGaussianBlur19" />
    </filter>
    <filter
       id="filter3401"
       x="-.047084"
       y="-.18442"
       width="1.0942"
       height="1.3688"
       color-interpolation-filters="sRGB">
      <feGaussianBlur
         stdDeviation="0.074806676"
         id="feGaussianBlur22" />
    </filter>
  </defs>
  <g
     transform="translate(214.04 35.56)"
     id="g63">
    <g
       transform="translate(-121.54 -187.2)"
       id="g61">
      <path
         d="m-72.361 159.5c-0.8619 0.12946-0.78272 0.1091-1.1696 0.18808-0.59426 0.12131-1.1876 0.25573-1.7659 0.43835-0.4814 0.152-0.95514 0.3325-1.4129 0.54538-0.51792 0.24086-1.0277 0.50658-1.5019 0.82486-0.39484 0.26496-0.78283 0.55113-1.1093 0.89681-0.26888 0.28466-0.52394 0.59735-0.68528 0.95414-0.1405 0.3107-0.23258 0.65907-0.22975 0.99684 0.0026 0.21595 0.03803 0.4293 0.10454 0.63953 0.06651 0.21024 0.16417 0.41736 0.29139 0.62085 0.12722 0.20348 0.28401 0.40333 0.4688 0.59903s0.39758 0.38724 0.63679 0.5741 0.50486 0.36905 0.79535 0.54604 0.60585 0.34877 0.94448 0.51484 0.70055 0.32642 1.0842 0.48053c0.38363 0.15411 0.78897 0.30198 1.2145 0.44309 0.42548 0.1411 0.8711 0.27545 1.3353 0.40251s0.94695 0.24684 1.4467 0.35881c0.49976 0.11198 1.0165 0.21614 1.5487 0.31199 0.53218 0.0958 1.2865 0.21643 1.8479 0.29511 0.56146 0.0787-0.05788 0.0165 1.4515 0.17588 0.58744 0.062 1.2619 0.0867 1.8725 0.12794 0.61059 0.0412 1.2319 0.0725 1.8623 0.0934 0.63044 0.0209 1.27 0.0314 1.9172 0.031 0.22423-1.5e-4 0.44815-2e-3 0.67167-5e-3s0.10169-2e-3 0.66633-2e-3c0.22268 1.4e-4 0.44764-6e-3 0.66915-0.0145 0.2215-8e-3 0.4424-0.0175 0.66259-0.0282s0.43967-0.0227 0.65834-0.036 0.43654-0.0279 0.65349-0.0438 0.42473-0.0248 0.63976-0.0432 0.42905-0.0381 0.64196-0.0591c0.2129-0.0209 0.4247-0.0432 0.63528-0.0666 0.21058-0.0235 0.31746-0.0337 0.52464-0.0658 0.76479-0.11877 0.22209-0.0277 0.76479-0.11877 0.25456-0.0427 0.43828-0.17117 0.06035-0.16774l-0.22169 2e-3c-0.13082 1e-3 -0.22413-2e-3 -0.35535-5.3e-4 -0.24269 2e-3 -0.23332-1e-3 -0.36486 1e-3 -0.2927 5e-3 -0.08877 5e-3 -0.44868-1.2e-4 -0.34226-5e-3 -0.27323-2e-3 -0.40541-1e-3 -0.32532 1e-3 -0.19292-2e-3 -0.32532 1e-3s-0.2732-3e-3 -0.40583-1e-3c-0.13264 2e-3 -0.3274-6e-3 -0.46021-4e-3 -0.36434 5e-3 -0.73703-6e-3 -0.87-6e-3 -0.67029 5.3e-4 -0.86972-0.0224-1.5227-0.043-0.65298-0.0207-1.3006-0.06-1.9289-0.0801-0.63341-0.0203-1.2185-0.0506-1.829-0.0872-0.6086-0.0365-1.2531-0.0995-1.8386-0.13666-0.58153-0.0369-1.0219-0.066-1.5771-0.13308-0.29606-0.0357-0.35454-0.0408-0.49449-0.0618-0.13995-0.0211-0.36136-0.0582-0.98327-0.15805-0.70206-0.11277-0.86452-0.15585-1.1017-0.20299-0.2372-0.0471-0.54915-0.0984-0.78954-0.16123-0.48077-0.12575-0.94122-0.27651-1.3824-0.4145-0.44652-0.13966-0.81902-0.27577-1.211-0.44146-0.38855-0.16421-0.75157-0.33168-1.0966-0.50774-0.35072-0.17898-0.67341-0.35226-0.96356-0.54463-0.28624-0.18979-0.57738-0.40753-0.81919-0.60015-0.24774-0.19735-0.46555-0.39949-0.63879-0.60954-0.16656-0.20195-0.33719-0.47416-0.45652-0.69622-0.11391-0.21199-0.20803-0.42705-0.27688-0.63513-0.06885-0.20807-0.10544-0.41922-0.10815-0.63293-0.0024-0.27621 0.053-0.54986 0.16328-0.81945s0.27553-0.53512 0.49305-0.79509c0.21752-0.25998 0.51613-0.53293 0.80668-0.76175 0.34511-0.2718 0.72293-0.50117 1.1042-0.71942 0.32997-0.1889 0.67596-0.34883 1.0209-0.50886 0.26074-0.12098 0.45177-0.19865 0.79207-0.34092 0.22484-0.094 1.1799-0.441 0.30004-0.30884z"
         fill="#363636"
         fill-rule="evenodd"
         id="path27" />
      <path
         transform="translate(-111.12)"
         d="m35.252 160.63c0.40384-0.16918 0.93542-0.3682 1.4544-0.52255 0.51896-0.15434 1.0283-0.26471 1.5363-0.37479-0.29533 0.0854-0.59068 0.17082-0.82608 0.24056-0.2354 0.0697-0.41087 0.12379-0.60441 0.18044-0.19354 0.0567-0.40452 0.11574-0.61872 0.18577-0.21419 0.07-0.43056 0.15074-0.64132 0.23085-0.21076 0.0801-0.41548 0.15945-0.62371 0.24388-0.20823 0.0844-0.4207 0.17426-0.63283 0.26395 0.27611-0.13938 0.55253-0.27893 0.95637-0.44811z"
         fill="#ececec"
         filter="url(#filter3413)"
         id="path29" />
      <path
         d="m-73.35 167.98s0.1152 0.0593 0.17363 0.0873c0.33092 0.15849 0.66118 0.31972 1.0018 0.45614 0.28504 0.11415 0.57592 0.21438 0.87005 0.30248 0.35697 0.10693 0.7207 0.19039 1.0839 0.27384 0.39764 0.0914 0.79856 0.16792 1.1986 0.24828 0.5479 0.11007 1.0953 0.22335 1.6457 0.32035 0.24376 0.043 0.48802 0.0839 0.73347 0.11586 0.35751 0.0465 0.71674 0.0794 1.0759 0.11033 1.08 0.0929 2.1613 0.17705 3.2442 0.22582 1.1162 0.0503 2.2339 0.0709 3.3512 0.0687 0.82758-2e-3 1.659 0.0265 2.482-0.0605 0.11383-0.012 0.53039-0.0554 0.33745-0.0636-0.19294-8e-3 -0.87266 4e-3 -1.309 0-0.86741-8e-3 -1.7348-0.0217-2.6019-0.0465-0.84366-0.0241-1.6871-0.0581-2.5301-0.0992-0.66266-0.0323-1.3251-0.0695-1.987-0.11575-0.49476-0.0346-0.98923-0.0741-1.483-0.12086-0.3345-0.0317-0.66949-0.0611-1.0022-0.10823-0.36507-0.0517-0.72711-0.12319-1.0895-0.19138-0.78757-0.14821-1.5773-0.28854-2.3571-0.47326-0.45542-0.10788-0.90849-0.22805-1.3543-0.37049-0.28406-0.0908-0.56104-0.20244-0.83994-0.30801-0.21553-0.0816-0.644-0.25145-0.644-0.25145z"
         fill="#fff"
         filter="url(#filter3409)"
         id="path31" />
      <g
         fill="#363636"
         fill-rule="evenodd"
         id="g39">
        <path
           d="m-56.537 151.64c-0.43589-7e-3 -0.87216 0.024-1.3063 0.0639-0.42978 0.0395-0.85826 0.0973-1.2831 0.17331-0.42068 0.0753-0.83856 0.16848-1.2512 0.27958-0.40868 0.11003-0.81307 0.23756-1.2106 0.38268-0.3938 0.14375-0.78185 0.30455-1.1614 0.48261-0.37609 0.17644-0.7449 0.3695-1.1034 0.57937-0.35556 0.20815-0.69663 0.44044-1.0367 0.67295-1.0268 0.70192-0.703 0.59093 0.16754 0.26053 0.27412-0.10403 0.31716-0.13306 0.47866-0.19196 0.27765-0.10125 0.55886-0.19302 0.84216-0.2772 0.28545-0.0848 0.57354-0.16122 0.86342-0.2294 0.29196-0.0687 0.58604-0.1289 0.88145-0.18084 0.29739-0.0523 0.59638-0.0961 0.89624-0.1315 0.30172-0.0356 0.60456-0.0628 0.90781-0.0814 0.30498-0.0188 0.61061-0.0341 0.91615-0.0306 0.88704 0.0103 1.7798 0.0188 2.657 0.15043 0.79849 0.11977 1.5861 0.32349 2.3521 0.57862 0.73364 0.24433 1.4492 0.55001 2.1351 0.90712 0.6992 0.36406 1.3765 0.77802 2.0058 1.2529 0.64139 0.48405 1.2683 1.0038 1.7888 1.6159 0.45596 0.53621 0.82728 1.1461 1.1452 1.774 0.3085 0.60925 0.56073 1.2527 0.72975 1.9143 0.1735 0.67918 0.23534 1.3843 0.28512 2.0836 2.49e-4 3e-3 4.2e-5 7e-3 6.6e-5 0.0105l6.4e-5 0.0105 6.3e-5 0.0105 6.6e-5 0.0105 6.7e-5 0.0105 6.3e-5 0.0105 6.6e-5 0.0105c2.1e-5 4e-3 2.65e-4 7e-3 6.4e-5 0.0105-0.04155 0.69546-0.09084 1.3982-0.26161 2.0737-0.1694 0.67004-0.42867 1.321-0.74932 1.9332-0.32715 0.62465-0.73326 1.2111-1.186 1.7517-0.46924 0.56039-1.0027 1.0702-1.5715 1.5292-0.59351 0.47891-1.2367 0.90003-1.906 1.2656-0.69949 0.38201-1.4378 0.6959-2.1894 0.96093-0.79634 0.28079-1.6263 0.50972-2.4451 0.66201-1.3498 0.25103-1.6431 0.33067-0.23741 0.32708 0.88737-2e-3 1.5342-0.0412 2.2893-0.16419 0.84667-0.13786 1.6827-0.35721 2.4927-0.63975 0.87084-0.30378 1.7259-0.67032 2.5264-1.1284 0.6084-0.34809 1.1759-0.76947 1.7123-1.2207 0.65955-0.55478 1.2995-1.1453 1.8393-1.8171 0.47471-0.59085 0.87961-1.2427 1.212-1.9238 0.33028-0.67675 0.59334-1.3923 0.76588-2.1253 0.17544-0.74529 0.22242-1.5171 0.267-2.2814 2.23e-4 -4e-3 0-8e-3 0-0.0115v-0.069c0-4e-3 2.41e-4 -8e-3 0-0.0115-0.04819-0.76437-0.09259-1.5391-0.28859-2.2795-0.19413-0.73331-0.52889-1.4252-0.86867-2.1034-0.32998-0.65865-0.68387-1.3132-1.131-1.8987-0.47738-0.6251-1.0398-1.1877-1.6378-1.6986-0.60597-0.51773-1.2677-0.97429-1.9592-1.3707-0.7141-0.40938-1.4687-0.75404-2.2439-1.0308-0.80314-0.28673-1.6347-0.50309-2.4755-0.64582-0.87504-0.14855-1.7665-0.20143-2.6539-0.21575z"
           id="path33" />
        <path
           d="m-60.515 160.22c0.68467 0.0104 1.36 0.0347 2.0396 0.0625 0.69527 0.0284 1.3905 0.0612 2.0848 0.1067 0.61819 0.0405 1.2358 0.0905 1.8526 0.14801 0.63593 0.0593 1.2722 0.11854 1.9053 0.20297 0.60108 0.0802 1.1985 0.1859 1.7962 0.28813 0.55914 0.0956 1.119 0.18886 1.6744 0.30425 0.54932 0.11413 1.0963 0.24061 1.6389 0.38363 0.54541 0.14377 1.0858 0.30675 1.6236 0.47666 0.47991 0.15161 0.95851 0.30843 1.4301 0.48413 0.56894 0.21196 1.1389 0.4257 1.6868 0.68715 0.2542 0.12129 0.50049 0.25966 0.74008 0.40772 0.27749 0.17148 0.55294 0.34922 0.80575 0.55536 0.23041 0.18787 0.438 0.4027 0.6436 0.61743 0.19247 0.20102 0.39286 0.39821 0.5513 0.62701 0.13986 0.20197 0.26486 0.41868 0.34693 0.65024 0.07606 0.21459 0.11564 0.44334 0.12973 0.67057 0.01511 0.24371 0.01429 0.4951-0.04924 0.73086-0.06506 0.24142-0.2007 0.4599-0.33248 0.67238-0.14157 0.22827-0.30469 0.44497-0.48834 0.64098-0.20134 0.21489-0.4291 0.40561-0.66641 0.57997-0.27052 0.19875-0.56751 0.35902-0.85794 0.52736-0.32614 0.18903-0.65234 0.37969-0.99275 0.54161-0.37873 0.18013-0.75221 0.33655-1.1644 0.47656-0.66704 0.22658-0.5379 0.24687 0.0404 0.19282 0.53085-0.0496 1.0948-0.11657 1.6359-0.21497 0.46808-0.0851 0.93183-0.19588 1.39-0.32414 0.40665-0.11386 0.80896-0.24501 1.2038-0.39475 0.31223-0.1184 0.62204-0.24585 0.91951-0.39755 0.32786-0.16719 0.64586-0.35541 0.94976-0.56298 0.23762-0.1623 0.46288-0.34297 0.68018-0.5316 0.17289-0.15008 0.34638-0.30203 0.4948-0.47635 0.14794-0.17375 0.2941-0.35558 0.39008-0.56262 0.07333-0.15818 0.11443-0.33213 0.13548-0.5052 0.0254-0.20879 0.02477-0.42387-0.01262-0.63085-0.06673-0.3694-0.19917-0.72983-0.37281-1.0626-0.19792-0.37934-0.44807-0.73865-0.75039-1.0414-0.55424-0.55508-1.2348-0.97456-1.9071-1.3786-0.59151-0.35545-1.2255-0.63738-1.8585-0.91217-0.648-0.2813-1.3071-0.54124-1.9813-0.75219-0.65171-0.20392-1.3215-0.34626-1.9881-0.49422-0.73678-0.16352-1.4777-0.30973-2.222-0.43459-0.9003-0.15104-1.8048-0.28001-2.7121-0.38023-1.0887-0.12025-2.1812-0.21344-3.2753-0.26495-1.0407-0.049-2.0833-0.0456-3.1251-0.0418-1.1691 4e-3 -2.5515 0.0424-3.5067 0.0723-1.9104 0.0598-3.365 0.21348-0.5258 0.25657z"
           id="path35" />
        <path
           d="m-61.613 154.45c-0.60763 0.14889-1.1992 0.36395-1.777 0.60394-0.7655 0.31798-1.522 0.66989-2.2285 1.1035-0.62373 0.38287-1.2123 0.82734-1.7594 1.3134-0.56381 0.50094-1.0923 1.0476-1.5575 1.6412-0.45237 0.57727-0.87566 1.1884-1.1875 1.8522-0.31939 0.67974-0.5308 1.4116-0.68385 2.1468-0.15565 0.74779-0.24072 1.5157-0.23346 2.2795 0.0073 0.76518 0.09865 1.5348 0.27726 2.2788 0.17568 0.73191 0.44162 1.446 0.77448 2.1211 0.335 0.67946 0.75041 1.3228 1.2188 1.9182 0.47818 0.60776 1.0235 1.1664 1.6104 1.67 0.60358 0.51801 1.2607 0.97802 1.949 1.3766 0.71081 0.41157 1.4624 0.75863 2.2349 1.0379 0.80031 0.28934 1.6294 0.50844 2.4678 0.65399 0.87277 0.15152 1.7623 0.20772 2.6479 0.22486 0.43848 8e-3 0.87956-0.0216 1.3143-0.0605s0.86558-0.0963 1.2911-0.17163c0.42551-0.0754 0.84567-0.16873 1.259-0.27952 0.41334-0.1108 0.81985-0.23904 1.2181-0.38418 0.3982-0.14513 0.7881-0.30717 1.1682-0.48558 0.38011-0.1784 0.75043-0.37317 1.1095-0.58376 0.35905-0.21059 0.70684-0.437 1.0419-0.67869 0.33503-0.2417 0.74752-0.54636-0.05535-0.26449-0.28223 0.0991-0.33738 0.11328-0.62038 0.2176s-0.57034 0.20041-0.86146 0.28814c-0.29112 0.0877-0.58601 0.16709-0.88409 0.23796-0.29808 0.0709-0.59936 0.13323-0.90324 0.18695-0.30388 0.0537-0.61038 0.0988-0.9189 0.13512-0.30853 0.0363-0.61908 0.0638-0.93108 0.0825-0.31201 0.0186-0.62546 0.0283-0.93979 0.029-7.1803 0.0116-13.017-4.6051-13.046-10.319-0.0019-0.35712 0.0191-0.71011 0.06167-1.0581 0.04256-0.34798 0.10677-0.69095 0.19155-1.028 0.08478-0.33708 0.19012-0.66829 0.31494-0.99276 0.12482-0.32446 0.26914-0.64218 0.43185-0.95228 0.16272-0.3101 0.34383-0.61258 0.54227-0.90658s0.4142-0.57951 0.64621-0.85567 0.48025-0.54297 0.74366-0.79955 0.54198-0.50294 0.83463-0.7382c0.29265-0.23527 0.59938-0.45944 0.91911-0.67166 0.31973-0.21221 0.65245-0.41247 0.9971-0.59989 0.34464-0.18742 0.70538-0.36377 1.0686-0.52291 0.37135-0.1627 0.75001-0.30955 1.1336-0.44071 0.39218-0.13409 0.79114-0.24862 1.1922-0.35331 0.39791-0.10388 0.80036-0.19012 1.2033-0.27238 0.37674-0.0769-0.35909 0.0656 1.1349-0.2067 0.44251-0.0806 0.17514-0.1447-0.48144-0.15597-0.34124-6e-3 -1.2336 5e-3 -1.8468 0.0619-0.6992 0.0654-1.4001 0.1539-2.0822 0.32102z"
           id="path37" />
      </g>
      <g
         fill="#fff"
         id="g51">
        <path
           transform="translate(-111.12)"
           d="m48.136 155.23c0.23386-0.0775 0.51683-0.16819 0.82952-0.26324 0.31268-0.095 0.65456-0.19426 0.96838-0.27407 0.31381-0.0798 0.60065-0.1405 0.89559-0.20011 0.29494-0.0596 0.59771-0.11811 0.94237-0.1629 0.34466-0.0448 0.73028-0.0758 1.1164-0.10681-0.31458 0.0198-0.62856 0.0395-0.91449 0.0635s-0.54225 0.0521-0.86255 0.0994-0.70389 0.11379-1.1126 0.21034c-0.4087 0.0966-0.84379 0.22363-1.1921 0.33929-0.34834 0.11565-0.61189 0.22052-0.86181 0.32586-0.24992 0.10533-0.48727 0.21158-0.72429 0.31769 0.10611-0.0483 0.21242-0.0966 0.35622-0.15237 0.1438-0.0557 0.32556-0.1191 0.55943-0.1966z"
           filter="url(#filter3393)"
           id="path41" />
        <path
           transform="translate(-111.12)"
           d="m48.625 153.2c0.24558-0.0973 0.49116-0.19454 0.72445-0.28372 0.23329-0.0892 0.45344-0.16996 0.75696-0.2668 0.30352-0.0968 0.6915-0.21006 1.1434-0.31337 0.45189-0.1033 0.96977-0.19721 1.5431-0.25358 0.57338-0.0564 1.2045-0.0757 1.8196-0.0788 0.61513-3e-3 1.216 0.0101 1.7498 0.0613 0.53382 0.0513 1.0042 0.14068 1.4556 0.23917 0.45143 0.0985 0.88436 0.20619 1.3518 0.35287 0.46745 0.14669 0.97025 0.33255 1.4732 0.51846-0.21966-0.10412-0.43919-0.20818-0.72914-0.33038s-0.65038-0.26254-1.015-0.38226c-0.36462-0.11971-0.73487-0.21918-1.1298-0.30519-0.39496-0.086-0.81617-0.15895-1.3714-0.21993-0.55521-0.061-1.2445-0.10998-1.7844-0.11768-0.53995-8e-3 -0.93289 0.0261-1.3164 0.0634s-0.75991 0.0782-1.2209 0.16675c-0.46103 0.0885-1.0126 0.2258-1.4369 0.35025-0.42426 0.12446-0.72503 0.23718-1.0397 0.36831s-0.64458 0.28117-0.97427 0.43112v2e-5z"
           filter="url(#filter3389)"
           id="path43" />
        <path
           d="m-57.54 160.06c-0.92823-2e-3 -1.4783-0.0158-2.7847 6e-3 0 0 1.6977 0.0337 2.5466 0.0496 0.60736 0.0114 1.2149 0.0154 1.8221 0.0328 0.83582 0.024 1.6721 0.0451 2.5065 0.0989 0.8727 0.0563 1.7437 0.13945 2.6131 0.23403 0.86456 0.0941 1.7277 0.20337 2.5878 0.3315 0.6095 0.0908 1.216 0.20111 1.8226 0.30975 0.43409 0.0777 0.86879 0.1531 1.3002 0.24479 0.22359 0.0475 0.44601 0.10076 0.66726 0.15818 0.17047 0.0442 0.33943 0.0942 0.50849 0.14352 0.44292 0.1293 0.88608 0.25825 1.3252 0.39978 0.35819 0.11542 0.71729 0.22958 1.0679 0.36638 0.3747 0.14619 1.1049 0.48486 1.1049 0.48486s-0.54543-0.28525-0.82611-0.41102c-0.2951-0.13222-0.59804-0.24643-0.90059-0.36057-0.38747-0.14617-0.77671-0.28841-1.171-0.41509-0.4615-0.14828-0.92903-0.27751-1.3971-0.4034-0.13269-0.0357-0.26609-0.0688-0.39998-0.0997-0.56914-0.13131-1.1396-0.25839-1.7141-0.3638-0.65477-0.12014-1.3137-0.21734-1.9735-0.30593-0.77726-0.10435-1.5565-0.19587-2.3376-0.26561-0.869-0.0776-1.7404-0.12721-2.6118-0.16988-0.54229-0.0266-1.0851-0.0432-1.6279-0.0536-0.70926-0.0136-1.4187-0.0105-2.1281-0.0117z"
           filter="url(#filter3397)"
           id="path45" />
        <path
           transform="translate(-111.12)"
           d="m48.791 173.8c0.35829 0.16261 0.7167 0.32527 1.0763 0.46718 0.35963 0.14192 0.7208 0.26323 1.1865 0.39548 0.46567 0.13226 1.0364 0.27564 1.5738 0.3776 0.53737 0.10195 1.0419 0.1626 1.5462 0.20117 0.50426 0.0386 1.0089 0.0551 1.5117 0.0427 0.50287-0.0124 1.0047-0.0538 1.4621-0.102s0.87104-0.10338 1.2857-0.17777c0.41465-0.0744 0.83111-0.16817 1.2609-0.31007s0.87353-0.33207 1.3173-0.52224c-0.24529 0.0909-0.49026 0.18178-0.71364 0.26038s-0.4243 0.14466-0.73056 0.21778c-0.30626 0.0731-0.71626 0.15292-1.0747 0.21909-0.3584 0.0662-0.66411 0.11849-1.0088 0.15849s-0.72743 0.0675-1.1341 0.0827c-0.40669 0.0151-0.83632 0.0178-1.2926 7e-3 -0.45629-0.0111-0.9383-0.0359-1.3049-0.062-0.36663-0.0262-0.61731-0.0537-0.93996-0.10613-0.32266-0.0524-0.71641-0.1295-1.0707-0.20944-0.35425-0.0799-0.66828-0.16259-0.9936-0.25632-0.32532-0.0937-0.66137-0.19841-0.98944-0.31419-0.32806-0.11579-0.64775-0.24256-0.96746-0.36934v2.7e-4z"
           filter="url(#filter3405)"
           id="path47" />
        <path
           transform="matrix(1.0043849,0,0,1.1129128,-111.34949,-19.66875)"
           d="m 54.801,174.09 c 0.14828,-0.0152 0.44456,-0.0455 0.76755,-0.0985 0.32299,-0.053 0.67335,-0.12889 0.99844,-0.21017 0.32509,-0.0813 0.62576,-0.16817 0.94254,-0.27768 0.31678,-0.1095 0.6503,-0.2418 0.98378,-0.37409 l -0.42995,0.23151 c -0.15434,0.0717 -0.30836,0.14317 -0.5326,0.22114 -0.22424,0.078 -0.51715,0.16186 -0.81911,0.23357 -0.30197,0.0717 -0.61168,0.1309 -0.87155,0.17158 -0.25987,0.0407 -0.46912,0.0627 -0.65873,0.0793 -0.18961,0.0166 -0.35887,0.0276 -0.44376,0.0331 -0.08489,0.006 -0.08489,0.005 0.06339,-0.01 z"
           id="path49"
           inkscape:connector-curvature="0"
           style="filter:url(#filter3401)" />
      </g>
      <text
         transform="scale(.94157 1.0621)"
         x="-99.279587"
         y="179.84628"
         fill="#ff0000"
         font-family="Wolfsburg"
         font-size="11.706px"
         letter-spacing="0px"
         stroke-width=".29266"
         word-spacing="0px"
         style="font-feature-settings:normal;font-variant-caps:normal;font-variant-ligatures:normal;font-variant-numeric:normal;line-height:1.25"
         xml:space="preserve"
         id="text55"><tspan
           x="-99.279587"
           y="179.84628"
           fill="#ff0000"
           font-family="Wolfsburg"
           font-size="11.706px"
           stroke-width=".29266"
           style="font-feature-settings:normal;font-variant-caps:normal;font-variant-ligatures:normal;font-variant-numeric:normal"
           id="tspan53">POWERFLO</tspan></text>
      <text
         transform="scale(.73506 1.3604)"
         x="-117.12634"
         y="147.95097"
         fill="#333333"
         font-family="Wolfsburg"
         font-size="4.5888px"
         letter-spacing="0px"
         stroke-width=".11472"
         word-spacing="0px"
         style="font-feature-settings:normal;font-variant-caps:normal;font-variant-ligatures:normal;font-variant-numeric:normal;line-height:1.25"
         xml:space="preserve"
         id="text59"><tspan
           x="-117.12634"
           y="147.95097"
           fill="#333333"
           font-family="Wolfsburg"
           font-size="4.5888px"
           stroke-width=".11472"
           style="font-feature-settings:normal;font-variant-caps:normal;font-variant-ligatures:normal;font-variant-numeric:normal"
           id="tspan57">S   O   L   U   T   I   O   N   S</tspan></text>
    </g>
  </g>
</svg>
